<svg width="50" height="58" viewBox="0 0 50 58" fill="none" xmlns="http://www.w3.org/2000/svg">
<path fill-rule="evenodd" clip-rule="evenodd" d="M2.41674 33.0026V22.7753C2.41569 19.5656 3.92056 16.5413 6.48154 14.6065C4.46117 11.9528 4.39492 8.29544 6.31787 5.57034C8.24082 2.84524 11.7088 1.6818 14.8862 2.69587C18.0635 3.70994 20.2164 6.6673 20.2051 10.0025C20.2084 7.75152 21.6914 5.77059 23.8504 5.13347C26.0093 4.49636 28.3302 5.35473 29.5551 7.24333C30.7799 9.13193 30.6171 11.6011 29.1549 13.3125C32.9797 14.9043 35.467 18.6456 35.4547 22.7883V23.1151L40.3854 19.9946C41.956 19.0115 43.9372 18.9614 45.5555 19.8637C47.1738 20.766 48.1727 22.4778 48.1621 24.3306V31.4473C48.1727 33.3001 47.1738 35.0119 45.5555 35.9142C43.9372 36.8165 41.956 36.7664 40.3854 35.7833L35.4547 32.6824V33.0092C35.4691 38.6388 30.919 43.2152 25.2894 43.2332H12.582C9.87734 43.2246 7.28689 42.1419 5.38053 40.2232C3.47417 38.3046 2.40806 35.7073 2.41674 33.0026Z" fill="#FAFBFF" stroke="#3256FE" stroke-width="3.5" stroke-linecap="round" stroke-linejoin="round"/>
<path fill-rule="evenodd" clip-rule="evenodd" d="M12.582 27.8887H25.2894H12.582ZM35.4546 23.0954V32.6823V23.0954ZM18.9994 55.9045V43.2331V55.9045ZM18.9994 43.2331L31.6415 55.9045L18.9994 43.2331ZM18.9994 43.2331L6.22991 55.9045L18.9994 43.2331ZM6.48155 14.5899C8.23699 13.26 10.3797 12.5416 12.582 12.5445H19.7706M20.8848 12.5444C20.4376 11.7661 20.2032 10.8837 20.2052 9.98597C20.2061 10.8572 20.0591 11.7223 19.7706 12.5444M20.8848 12.5444H25.2894C26.6157 12.5425 27.9293 12.8023 29.1549 13.309M20.8881 12.5446H19.7738H20.8881Z" fill="#FAFBFF"/>
<path d="M12.582 26.1387C11.6155 26.1387 10.832 26.9222 10.832 27.8887C10.832 28.8552 11.6155 29.6387 12.582 29.6387V26.1387ZM25.2894 29.6387C26.2559 29.6387 27.0394 28.8552 27.0394 27.8887C27.0394 26.9222 26.2559 26.1387 25.2894 26.1387V29.6387ZM37.2046 23.0954C37.2046 22.1289 36.4211 21.3454 35.4546 21.3454C34.4881 21.3454 33.7046 22.1289 33.7046 23.0954H37.2046ZM33.7046 32.6823C33.7046 33.6488 34.4881 34.4323 35.4546 34.4323C36.4211 34.4323 37.2046 33.6488 37.2046 32.6823H33.7046ZM17.2494 55.9045C17.2494 56.871 18.0329 57.6545 18.9994 57.6545C19.9659 57.6545 20.7494 56.871 20.7494 55.9045H17.2494ZM20.7494 43.2331C20.7494 42.2666 19.9659 41.4831 18.9994 41.4831C18.0329 41.4831 17.2494 42.2666 17.2494 43.2331H20.7494ZM20.2383 41.9971C19.5557 41.3129 18.4476 41.3116 17.7634 41.9942C17.0792 42.6768 17.0779 43.7849 17.7605 44.4691L20.2383 41.9971ZM30.4026 57.1405C31.0852 57.8247 32.1933 57.826 32.8775 57.1434C33.5617 56.4608 33.563 55.3528 32.8803 54.6685L30.4026 57.1405ZM20.232 44.4753C20.9181 43.7945 20.9224 42.6865 20.2416 42.0004C19.5608 41.3144 18.4528 41.3101 17.7667 41.9909L20.232 44.4753ZM4.99725 54.6623C4.3112 55.3431 4.30693 56.4512 4.98771 57.1372C5.66849 57.8232 6.77652 57.8275 7.46257 57.1467L4.99725 54.6623ZM5.42477 13.195C4.6544 13.7787 4.50301 14.8763 5.08666 15.6467C5.6703 16.4171 6.76794 16.5685 7.53832 15.9848L5.42477 13.195ZM12.582 12.5445L12.5797 14.2945H12.582V12.5445ZM19.7706 14.2945C20.7371 14.2945 21.5206 13.511 21.5206 12.5445C21.5206 11.578 20.7371 10.7945 19.7706 10.7945V14.2945ZM19.3674 13.4162C19.8489 14.2542 20.9185 14.5433 21.7566 14.0618C22.5946 13.5804 22.8837 12.5107 22.4022 11.6727L19.3674 13.4162ZM20.2052 9.98597L21.9552 9.98416C21.9542 9.01875 21.1716 8.23652 20.2062 8.23597C19.2408 8.23542 18.4573 9.01677 18.4552 9.98217L20.2052 9.98597ZM18.1194 11.9649C17.7993 12.8769 18.2791 13.8756 19.1911 14.1957C20.103 14.5158 21.1018 14.0359 21.4219 13.124L18.1194 11.9649ZM20.8848 10.7944C19.9183 10.7944 19.1348 11.5779 19.1348 12.5444C19.1348 13.5109 19.9183 14.2944 20.8848 14.2944V10.7944ZM25.2894 12.5444V14.2944L25.2919 14.2944L25.2894 12.5444ZM28.4863 14.9263C29.3795 15.2955 30.4029 14.8707 30.7722 13.9776C31.1414 13.0844 30.7167 12.061 29.8235 11.6917L28.4863 14.9263ZM20.8881 14.2946C21.8546 14.2946 22.6381 13.5111 22.6381 12.5446C22.6381 11.5781 21.8546 10.7946 20.8881 10.7946V14.2946ZM19.7738 10.7946C18.8073 10.7946 18.0238 11.5781 18.0238 12.5446C18.0238 13.5111 18.8073 14.2946 19.7738 14.2946V10.7946ZM12.582 27.8887V29.6387H25.2894V27.8887V26.1387H12.582V27.8887ZM35.4546 23.0954H33.7046V32.6823H35.4546H37.2046V23.0954H35.4546ZM18.9994 55.9045H20.7494V43.2331H18.9994H17.2494V55.9045H18.9994ZM18.9994 43.2331L17.7605 44.4691L30.4026 57.1405L31.6415 55.9045L32.8803 54.6685L20.2383 41.9971L18.9994 43.2331ZM18.9994 43.2331L17.7667 41.9909L4.99725 54.6623L6.22991 55.9045L7.46257 57.1467L20.232 44.4753L18.9994 43.2331ZM6.48155 14.5899L7.53832 15.9848C8.98901 14.8858 10.7597 14.2921 12.5797 14.2945L12.582 12.5445L12.5843 10.7945C9.99964 10.7911 7.48497 11.6342 5.42477 13.195L6.48155 14.5899ZM12.582 12.5445V14.2945H19.7706V12.5445V10.7945H12.582V12.5445ZM20.8848 12.5444L22.4022 11.6727C22.1081 11.1607 21.9539 10.5802 21.9552 9.98976L20.2052 9.98597L18.4552 9.98217C18.4526 11.1871 18.7672 12.3714 19.3674 13.4162L20.8848 12.5444ZM20.2052 9.98597L18.4552 9.98778C18.4559 10.6611 18.3423 11.3296 18.1194 11.9649L19.7706 12.5444L21.4219 13.124C21.776 12.1151 21.9563 11.0534 21.9552 9.98416L20.2052 9.98597ZM20.8848 12.5444V14.2944H25.2894V12.5444V10.7944H20.8848V12.5444ZM25.2894 12.5444L25.2919 14.2944C26.3879 14.2928 27.4735 14.5075 28.4863 14.9263L29.1549 13.309L29.8235 11.6917C28.385 11.0971 26.8434 10.7922 25.2869 10.7944L25.2894 12.5444ZM20.8881 12.5446V10.7946H19.7738V12.5446V14.2946H20.8881V12.5446Z" fill="#3256FE"/>
</svg>
