<svg width="42" height="41" viewBox="0 0 42 41" fill="none" xmlns="http://www.w3.org/2000/svg">
<path d="M12 15.5C9.83333 14.1667 5 9.89999 3 3.49999C2.8812 3.49999 2.71487 3.23396 3 2.16986C3.28512 1.10576 4.78547 1.27991 5.5 1.49999H22C25.3333 1.16666 33.2 1.69999 38 6.49999C42.8 11.3 40 16.8997 38 19.0996C36.3333 20.3053 31.3 22.7169 24.5 22.7169C17.7 22.7169 13.3333 17.9056 12 15.5Z" fill="#FAFBFF" stroke="#3256FE"/>
<path d="M26.05 22.35V24.2C26.05 29.4326 26.05 32.0488 27.6756 33.6744C29.3012 35.3 31.9174 35.3 37.15 35.3" stroke="#3256FE" stroke-width="3" stroke-linejoin="round"/>
<path d="M36.5791 31.6V39" stroke="#3256FE" stroke-width="3" stroke-linecap="round" stroke-linejoin="round"/>
<path d="M14.9499 18.334L13.9561 18.4444C12.4694 18.6096 11.7259 18.6923 11.1337 18.6281C8.24329 18.3149 5.96505 15.7535 5.71504 12.5362C5.66381 11.877 5.74632 11.0513 5.91133 9.39996" stroke="#3256FE" stroke-width="3" stroke-linejoin="round"/>
<path d="M23.629 11.25H23.6457" stroke="#3256FE" stroke-width="3" stroke-linecap="round" stroke-linejoin="round"/>
<path d="M29.75 11.25H38.075" stroke="#3256FE" stroke-width="3" stroke-linecap="round" stroke-linejoin="round"/>
<path d="M2.4551 6.11468C2.04436 4.45554 1.839 3.62596 2.15137 3.00843C2.2576 2.7984 2.40263 2.61081 2.57863 2.4558C3.09611 2 3.94285 2 5.63636 2H28.9243C34.489 2 39 6.5555 39 12.175C39 17.7946 34.489 22.35 28.9243 22.35H20.1394C18.6302 22.35 17.8754 22.35 17.2272 22.0916C16.7272 21.8923 16.2768 21.5843 15.9079 21.1895C15.4295 20.6776 15.1492 19.97 14.5886 18.5547L13.5944 16.0446C13.0194 14.593 12.7319 13.8672 12.2001 13.3301C11.6684 12.7931 10.9497 12.5028 9.5122 11.9222L6.38191 10.6577C5.03742 10.1146 4.36519 9.84304 3.86062 9.36463C3.68374 9.19691 3.52379 9.01185 3.38314 8.8122C2.98191 8.2427 2.80631 7.53337 2.4551 6.11468Z" stroke="#3256FE" stroke-width="3" stroke-linejoin="round"/>
</svg>
