<svg width="48" height="48" viewBox="0 0 48 48" fill="none" xmlns="http://www.w3.org/2000/svg">
<path fill-rule="evenodd" clip-rule="evenodd" d="M6.05538 12.0108C0.143113 20.8581 1.5611 32.6942 9.39589 39.8945C17.2307 47.0949 29.1442 47.5106 37.4619 40.874C45.7796 34.2374 48.0192 22.5289 42.7381 13.291C37.457 4.05316 26.2311 0.0426779 16.292 3.8431L15.7401 4.06201C11.7969 5.69573 8.42665 8.46191 6.05538 12.0108ZM17.8337 24.0019C17.8337 21.0599 19.9119 18.5275 22.7974 17.9536C25.6829 17.3797 28.572 18.9241 29.6978 21.6422C30.8235 24.3604 29.8723 27.4952 27.426 29.1295C27.3335 29.1912 27.2399 29.2508 27.1454 29.3083C25.239 30.4386 22.8727 30.459 20.9472 29.3617C19.0216 28.2644 17.833 26.2182 17.8337 24.0019Z" fill="#FAFBFF"/>
<path d="M6.05538 12.0108L7.5104 12.9832L7.51046 12.9831L6.05538 12.0108ZM9.39589 39.8945L8.21173 41.183H8.21173L9.39589 39.8945ZM37.4619 40.874L36.3704 39.5061L37.4619 40.874ZM42.7381 13.291L41.2189 14.1596L42.7381 13.291ZM16.292 3.8431L15.667 2.20852C15.6603 2.2111 15.6535 2.21372 15.6468 2.21639L16.292 3.8431ZM15.7401 4.06201L15.0949 2.43531C15.0867 2.43857 15.0785 2.44189 15.0703 2.44528L15.7401 4.06201ZM22.7974 17.9536L22.456 16.2373L22.7974 17.9536ZM29.6978 21.6422L31.3146 20.9726L29.6978 21.6422ZM27.426 29.1295L28.3967 30.5856L28.3981 30.5847L27.426 29.1295ZM27.1454 29.3083L28.0379 30.8137C28.0437 30.8102 28.0495 30.8067 28.0553 30.8032L27.1454 29.3083ZM20.9472 29.3617L20.0807 30.8821L20.9472 29.3617ZM6.05538 12.0108L4.60036 11.0385C-1.79128 20.6031 -0.258317 33.3989 8.21173 41.183L9.39589 39.8945L10.5801 38.606C3.38052 31.9895 2.0775 21.1131 7.5104 12.9832L6.05538 12.0108ZM9.39589 39.8945L8.21173 41.183C16.6818 48.9672 29.5612 49.4167 38.5533 42.2419L37.4619 40.874L36.3704 39.5061C28.7271 45.6046 17.7796 45.2225 10.5801 38.606L9.39589 39.8945ZM37.4619 40.874L38.5533 42.2419C47.5454 35.0672 49.9667 22.4094 44.2574 12.4225L42.7381 13.291L41.2189 14.1596C46.0718 22.6484 44.0137 33.4076 36.3704 39.5061L37.4619 40.874ZM42.7381 13.291L44.2574 12.4225C38.5481 2.43561 26.412 -1.90005 15.667 2.20852L16.292 3.8431L16.9171 5.47768C26.0503 1.9854 36.366 5.67071 41.2189 14.1596L42.7381 13.291ZM16.292 3.8431L15.6468 2.21639L15.0949 2.43531L15.7401 4.06201L16.3854 5.68872L16.9373 5.4698L16.292 3.8431ZM15.7401 4.06201L15.0703 2.44528C10.8074 4.21146 7.16383 7.20193 4.6003 11.0386L6.05538 12.0108L7.51046 12.9831C9.68947 9.7219 12.7865 7.18 16.41 5.67875L15.7401 4.06201ZM17.8337 24.0019L19.5837 24.0019C19.5837 21.8948 21.0722 20.0811 23.1388 19.67L22.7974 17.9536L22.456 16.2373C18.7517 16.974 16.0837 20.225 16.0837 24.002L17.8337 24.0019ZM22.7974 17.9536L23.1388 19.67C25.2055 19.259 27.2747 20.3651 28.0809 22.3118L29.6978 21.6422L31.3146 20.9726C29.8694 17.4831 26.1604 15.5005 22.456 16.2373L22.7974 17.9536ZM29.6978 21.6422L28.0809 22.3118C28.8872 24.2586 28.206 26.5038 26.4538 27.6744L27.426 29.1295L28.3981 30.5847C31.5387 28.4866 32.7598 24.4621 31.3146 20.9726L29.6978 21.6422ZM27.426 29.1295L26.4552 27.6734C26.3827 27.7218 26.3094 27.7685 26.2355 27.8135L27.1454 29.3083L28.0553 30.8032C28.1705 30.7331 28.2843 30.6605 28.3967 30.5856L27.426 29.1295ZM27.1454 29.3083L26.2529 27.803C24.8875 28.6126 23.1927 28.6272 21.8136 27.8413L20.9472 29.3617L20.0807 30.8821C22.5527 32.2909 25.5905 32.2647 28.0379 30.8137L27.1454 29.3083ZM20.9472 29.3617L21.8136 27.8413C20.4345 27.0553 19.5832 25.5898 19.5837 24.0025L17.8337 24.0019L16.0837 24.0014C16.0828 26.8466 17.6087 29.4734 20.0807 30.8821L20.9472 29.3617Z" fill="#3256FE"/>
<path fill-rule="evenodd" clip-rule="evenodd" d="M37.604 7.24714C39.0116 16.0556 34.8555 24.8224 27.1454 29.3084L37.604 7.24714ZM45.3124 27.3936C38.3703 33.0362 28.6668 33.8113 20.917 29.3423L45.3124 27.3936ZM10.3998 40.7506C8.99432 31.945 13.1488 23.1815 20.8554 18.6956L10.3998 40.7506ZM17.8337 24.002C17.8341 32.9477 23.353 40.9659 31.7087 44.1608L17.8337 24.002ZM16.292 3.84314C24.6477 7.03803 30.1666 15.0563 30.167 24.002L16.292 3.84314ZM2.68835 20.6103C9.63045 14.9677 19.3339 14.1926 27.0837 18.6616L2.68835 20.6103Z" fill="#FAFBFF"/>
<path d="M39.3321 6.97099C39.1796 6.0166 38.2823 5.36655 37.3279 5.51907C36.3735 5.67158 35.7234 6.5689 35.8759 7.52329L39.3321 6.97099ZM26.2653 27.7958C25.4299 28.2818 25.1467 29.3531 25.6328 30.1885C26.1188 31.0239 27.19 31.307 28.0254 30.821L26.2653 27.7958ZM46.4161 28.7516C47.1661 28.142 47.28 27.0399 46.6704 26.2899C46.0607 25.5399 44.9586 25.426 44.2086 26.0356L46.4161 28.7516ZM21.7912 27.8263C20.954 27.3435 19.8838 27.6308 19.401 28.4681C18.9182 29.3054 19.2055 30.3755 20.0428 30.8583L21.7912 27.8263ZM8.67164 41.0265C8.82398 41.9809 9.72118 42.6311 10.6756 42.4788C11.63 42.3264 12.2802 41.4292 12.1279 40.4748L8.67164 41.0265ZM21.7357 20.208C22.571 19.7218 22.854 18.6505 22.3678 17.8152C21.8816 16.9799 20.8103 16.6969 19.975 17.1831L21.7357 20.208ZM19.5837 24.0019C19.5836 23.0354 18.8001 22.2519 17.8336 22.252C16.8671 22.252 16.0836 23.0356 16.0837 24.0021L19.5837 24.0019ZM31.0837 45.7954C31.9864 46.1406 32.9981 45.6886 33.3433 44.7858C33.6885 43.8831 33.2364 42.8714 32.3337 42.5262L31.0837 45.7954ZM16.917 2.20855C16.0143 1.86337 15.0026 2.31538 14.6574 3.21814C14.3123 4.1209 14.7643 5.13255 15.667 5.47773L16.917 2.20855ZM28.417 24.0021C28.4171 24.9686 29.2006 25.752 30.1671 25.752C31.1336 25.7519 31.9171 24.9684 31.917 24.0019L28.417 24.0021ZM1.58457 19.2523C0.834567 19.8619 0.720753 20.9641 1.33036 21.7141C1.93996 22.4641 3.04214 22.5779 3.79214 21.9683L1.58457 19.2523ZM26.2095 20.1776C27.0467 20.6605 28.1169 20.3731 28.5997 19.5359C29.0825 18.6986 28.7952 17.6285 27.9579 17.1456L26.2095 20.1776ZM37.604 7.24714L35.8759 7.52329C37.1694 15.6175 33.3503 23.6735 26.2653 27.7958L27.1454 29.3084L28.0254 30.821C36.3607 25.9713 40.8538 16.4936 39.3321 6.97099L37.604 7.24714ZM45.3124 27.3936L44.2086 26.0356C37.8293 31.2207 28.9127 31.933 21.7912 27.8263L20.917 29.3423L20.0428 30.8583C28.421 35.6896 38.9112 34.8517 46.4161 28.7516L45.3124 27.3936ZM10.3998 40.7506L12.1279 40.4748C10.8364 32.3831 14.654 24.3302 21.7357 20.208L20.8554 18.6956L19.975 17.1831C11.6435 22.0328 7.15223 31.5068 8.67164 41.0265L10.3998 40.7506ZM17.8337 24.002L16.0837 24.0021C16.0842 33.6731 22.0505 42.3415 31.0837 45.7954L31.7087 44.1608L32.3337 42.5262C24.6555 39.5904 19.5841 32.2223 19.5837 24.0019L17.8337 24.002ZM16.292 3.84314L15.667 5.47773C23.3453 8.41357 28.4166 15.7817 28.417 24.0021L30.167 24.002L31.917 24.0019C31.9165 14.3309 25.9502 5.66249 16.917 2.20855L16.292 3.84314ZM2.68835 20.6103L3.79214 21.9683C10.1714 16.7832 19.088 16.071 26.2095 20.1776L27.0837 18.6616L27.9579 17.1456C19.5797 12.3143 9.08954 13.1522 1.58457 19.2523L2.68835 20.6103Z" fill="#3256FE"/>
</svg>
