<svg width="45" height="49" viewBox="0 0 45 49" fill="none" xmlns="http://www.w3.org/2000/svg">
<path fill-rule="evenodd" clip-rule="evenodd" d="M14.75 10.1256H30.1667H14.75ZM14.75 10.1256C7.93848 10.1256 2.41666 15.6475 2.41666 22.459V34.7923C2.41666 41.6038 7.93848 47.1256 14.75 47.1256H30.1667C36.9782 47.1256 42.5 41.6038 42.5 34.7923V22.459C42.5 15.6475 36.9782 10.1256 30.1667 10.1256M14.75 10.1256V5.50064C14.767 4.66566 15.1151 3.87165 15.7176 3.29337C16.3202 2.7151 17.1278 2.39996 17.9628 2.41731H26.9538C27.7888 2.39996 28.5964 2.7151 29.199 3.29337C29.8016 3.87165 30.1497 4.66566 30.1667 5.50064V10.1256" fill="#FAFBFF"/>
<path d="M14.75 8.37564C13.7835 8.37564 13 9.15914 13 10.1256C13 11.0921 13.7835 11.8756 14.75 11.8756V8.37564ZM30.1667 11.8756C31.1332 11.8756 31.9167 11.0921 31.9167 10.1256C31.9167 9.15914 31.1332 8.37564 30.1667 8.37564V11.8756ZM14.75 11.8756C15.7165 11.8756 16.5 11.0921 16.5 10.1256C16.5 9.15914 15.7165 8.37564 14.75 8.37564V11.8756ZM30.1667 8.37564C29.2002 8.37564 28.4167 9.15914 28.4167 10.1256C28.4167 11.0921 29.2002 11.8756 30.1667 11.8756V8.37564ZM13 10.1256C13 11.0921 13.7835 11.8756 14.75 11.8756C15.7165 11.8756 16.5 11.0921 16.5 10.1256H13ZM14.75 5.50064L13.0004 5.46502C13.0001 5.47689 13 5.48877 13 5.50064H14.75ZM15.7176 3.29337L16.9294 4.556L15.7176 3.29337ZM17.9628 2.41731L17.9265 4.16693C17.9386 4.16718 17.9507 4.16731 17.9628 4.16731V2.41731ZM26.9538 2.41731V4.16731C26.9659 4.16731 26.9781 4.16718 26.9902 4.16693L26.9538 2.41731ZM29.199 3.29337L27.9873 4.556L29.199 3.29337ZM30.1667 5.50064H31.9167C31.9167 5.48877 31.9165 5.47689 31.9163 5.46502L30.1667 5.50064ZM28.4167 10.1256C28.4167 11.0921 29.2002 11.8756 30.1667 11.8756C31.1332 11.8756 31.9167 11.0921 31.9167 10.1256H28.4167ZM14.75 10.1256V11.8756H30.1667V10.1256V8.37564H14.75V10.1256ZM14.75 10.1256V8.37564C6.97198 8.37564 0.666656 14.681 0.666656 22.459H2.41666H4.16666C4.16666 16.614 8.90498 11.8756 14.75 11.8756V10.1256ZM2.41666 22.459H0.666656V34.7923H2.41666H4.16666V22.459H2.41666ZM2.41666 34.7923H0.666656C0.666656 42.5703 6.97198 48.8756 14.75 48.8756V47.1256V45.3756C8.90498 45.3756 4.16666 40.6373 4.16666 34.7923H2.41666ZM14.75 47.1256V48.8756H30.1667V47.1256V45.3756H14.75V47.1256ZM30.1667 47.1256V48.8756C37.9447 48.8756 44.25 42.5703 44.25 34.7923H42.5H40.75C40.75 40.6373 36.0117 45.3756 30.1667 45.3756V47.1256ZM42.5 34.7923H44.25V22.459H42.5H40.75V34.7923H42.5ZM42.5 22.459H44.25C44.25 14.681 37.9447 8.37564 30.1667 8.37564V10.1256V11.8756C36.0117 11.8756 40.75 16.614 40.75 22.459H42.5ZM14.75 10.1256H16.5V5.50064H14.75H13V10.1256H14.75ZM14.75 5.50064L16.4996 5.53626C16.5072 5.16544 16.6618 4.81281 16.9294 4.556L15.7176 3.29337L14.5059 2.03075C13.5684 2.93049 13.0268 4.16588 13.0004 5.46502L14.75 5.50064ZM15.7176 3.29337L16.9294 4.556C17.197 4.29918 17.5556 4.15922 17.9265 4.16693L17.9628 2.41731L17.9992 0.667684C16.7 0.640688 15.4434 1.13102 14.5059 2.03075L15.7176 3.29337ZM17.9628 2.41731V4.16731H26.9538V2.41731V0.667306H17.9628V2.41731ZM26.9538 2.41731L26.9902 4.16693C27.361 4.15922 27.7197 4.29918 27.9873 4.556L29.199 3.29337L30.4107 2.03075C29.4732 1.13102 28.2166 0.640688 26.9175 0.667684L26.9538 2.41731ZM29.199 3.29337L27.9873 4.556C28.2549 4.81281 28.4095 5.16544 28.417 5.53625L30.1667 5.50064L31.9163 5.46502C31.8898 4.16588 31.3483 2.93049 30.4107 2.03075L29.199 3.29337ZM30.1667 5.50064H28.4167V10.1256H30.1667H31.9167V5.50064H30.1667Z" fill="#3256FE"/>
<path fill-rule="evenodd" clip-rule="evenodd" d="M22.4583 34.7923C19.0526 34.7923 16.2917 32.0314 16.2917 28.6257C16.2917 25.2199 19.0526 22.459 22.4583 22.459C25.8641 22.459 28.625 25.2199 28.625 28.6257C28.625 32.0314 25.8641 34.7923 22.4583 34.7923Z" fill="#FAFBFF" stroke="#3256FE" stroke-width="3.5" stroke-linecap="round" stroke-linejoin="round"/>
</svg>
