<svg width="40" height="40" viewBox="0 0 40 40" fill="none" xmlns="http://www.w3.org/2000/svg">
<path d="M36.6667 23.3333V16.6666C36.6667 10.3812 36.6667 7.23856 34.714 5.28593C32.7615 3.33331 29.6187 3.33331 23.3333 3.33331H20C13.7146 3.33331 10.5719 3.33331 8.61927 5.28593C6.66666 7.23856 6.66666 10.3812 6.66666 16.6666V23.3333C6.66666 29.6186 6.66666 32.7615 8.61927 34.714C10.5719 36.6666 13.7146 36.6666 20 36.6666H23.3333C29.6187 36.6666 32.7615 36.6666 34.714 34.714C36.6667 32.7615 36.6667 29.6186 36.6667 23.3333Z" fill="#FAFBFF" stroke="#3256FE" stroke-width="3.33333"/>
<path d="M36.6667 23.3333V16.6666C36.6667 10.3812 36.6667 7.23856 34.714 5.28593C32.7615 3.33331 29.6187 3.33331 23.3333 3.33331H20C13.7146 3.33331 10.5719 3.33331 8.61927 5.28593C6.66666 7.23856 6.66666 10.3812 6.66666 16.6666V23.3333C6.66666 29.6186 6.66666 32.7615 8.61927 34.714C10.5719 36.6666 13.7146 36.6666 20 36.6666H23.3333C29.6187 36.6666 32.7615 36.6666 34.714 34.714C36.6667 32.7615 36.6667 29.6186 36.6667 23.3333Z" stroke="#3256FE" stroke-width="3.33333"/>
<path d="M8.33334 10H3.33334M8.33334 20H3.33334M8.33334 30H3.33334" stroke="#3256FE" stroke-width="3.33333" stroke-linecap="round" stroke-linejoin="round"/>
<path d="M29.1667 11.6667H22.5M25.8333 18.3334H22.5" stroke="#3256FE" stroke-width="3.33333" stroke-linecap="round" stroke-linejoin="round"/>
<path d="M15 36.6666V3.33331" stroke="#3256FE" stroke-width="3.33333" stroke-linecap="round" stroke-linejoin="round"/>
</svg>
