<svg width="40" height="40" viewBox="0 0 40 40" fill="none" xmlns="http://www.w3.org/2000/svg">
<path d="M20 23.3334C21.8409 23.3334 23.3333 21.841 23.3333 20C23.3333 18.1591 21.8409 16.6667 20 16.6667C18.159 16.6667 16.6667 18.1591 16.6667 20C16.6667 21.841 18.159 23.3334 20 23.3334Z" fill="#FAFBFF" stroke="#3256FE" stroke-width="3.33333" stroke-linecap="round" stroke-linejoin="round"/>
<path d="M20 23.3334C21.8409 23.3334 23.3333 21.841 23.3333 20C23.3333 18.1591 21.8409 16.6667 20 16.6667C18.159 16.6667 16.6667 18.1591 16.6667 20C16.6667 21.841 18.159 23.3334 20 23.3334Z" stroke="#3256FE" stroke-width="3.33333" stroke-linecap="round" stroke-linejoin="round"/>
<path d="M12.5 13.3333C10.8333 15 10 17.5 10 20C10 22.5 10.8333 25 12.5 26.6666" stroke="#3256FE" stroke-width="3.33333" stroke-linecap="round" stroke-linejoin="round"/>
<path d="M7.50001 10C5.00001 12.5 3.33334 15.8333 3.33334 20C3.33334 24.1667 5.00001 27.5 7.50001 30" stroke="#3256FE" stroke-width="3.33333" stroke-linecap="round" stroke-linejoin="round"/>
<path d="M27.5 26.6666C29.1667 25 30 22.5 30 20C30 17.5 29.1667 15 27.5 13.3333" stroke="#3256FE" stroke-width="3.33333" stroke-linecap="round" stroke-linejoin="round"/>
<path d="M32.5 30C35 27.5 36.6667 24.1667 36.6667 20C36.6667 15.8333 35 12.5 32.5 10" stroke="#3256FE" stroke-width="3.33333" stroke-linecap="round" stroke-linejoin="round"/>
</svg>
