<svg width="40" height="40" viewBox="0 0 40 40" fill="none" xmlns="http://www.w3.org/2000/svg">
<path d="M25.2547 7.14006C23.2982 6.41396 22.4295 3.50786 20.1997 3.34076C20.0672 3.33083 19.9338 3.33083 19.8013 3.34076C17.5715 3.50788 16.7028 6.4138 14.7463 7.14006C12.6747 7.90871 9.84202 6.33311 8.08787 8.0873C6.39945 9.77568 7.89355 12.7165 7.14064 14.7458C6.37094 16.8191 3.15224 17.6768 3.34134 20.1991C3.50844 22.429 6.41454 23.2976 7.14064 25.2541C7.89359 27.2833 6.39937 30.2243 8.08787 31.9126C9.84177 33.6668 12.6746 32.0918 14.7463 32.8598C16.7023 33.587 17.5718 36.4923 19.8013 36.6591C19.9338 36.6691 20.0672 36.6691 20.1997 36.6591C22.4292 36.4923 23.2988 33.5868 25.2547 32.8598C27.284 32.1075 30.2252 33.6011 31.9132 31.9126C33.7253 30.1008 31.9793 27.1635 32.9367 25.07C33.8215 23.1425 36.8438 22.2398 36.6597 19.8008C36.4928 17.5713 33.5875 16.7016 32.8603 14.7458C32.0923 12.6741 33.6673 9.8412 31.9132 8.0873C30.1592 6.33303 27.3263 7.90876 25.2547 7.14006Z" fill="#FAFBFF" stroke="#3256FE" stroke-width="3.33333"/>
<path d="M20 26.6667H20.015" stroke="#3256FE" stroke-width="3.33333" stroke-linecap="round" stroke-linejoin="round"/>
<path d="M20 21.6666V13.3333" stroke="#3256FE" stroke-width="3.33333" stroke-linecap="round" stroke-linejoin="round"/>
<path d="M25.2547 7.14006C23.2982 6.41396 22.4295 3.50786 20.1997 3.34076C20.0672 3.33083 19.9338 3.33083 19.8013 3.34076C17.5715 3.50788 16.7028 6.4138 14.7463 7.14006C12.6747 7.90871 9.84202 6.33311 8.08787 8.0873C6.39945 9.77568 7.89355 12.7165 7.14064 14.7458C6.37094 16.8191 3.15224 17.6768 3.34134 20.1991C3.50844 22.429 6.41454 23.2976 7.14064 25.2541C7.89359 27.2833 6.39937 30.2243 8.08787 31.9126C9.84177 33.6668 12.6746 32.0918 14.7463 32.8598C16.7023 33.587 17.5718 36.4923 19.8013 36.6591C19.9338 36.6691 20.0672 36.6691 20.1997 36.6591C22.4292 36.4923 23.2988 33.5868 25.2547 32.8598C27.284 32.1075 30.2252 33.6011 31.9132 31.9126C33.7253 30.1008 31.9793 27.1635 32.9367 25.07C33.8215 23.1425 36.8438 22.2398 36.6597 19.8008C36.4928 17.5713 33.5875 16.7016 32.8603 14.7458C32.0923 12.6741 33.6673 9.8412 31.9132 8.0873C30.1592 6.33303 27.3263 7.90876 25.2547 7.14006Z" stroke="#3256FE" stroke-width="3.33333"/>
</svg>
