<svg width="40" height="40" viewBox="0 0 40 40" fill="none" xmlns="http://www.w3.org/2000/svg">
<path d="M20.2105 34.8684C28.4076 34.8684 35.0526 28.2234 35.0526 20.0263C35.0526 11.8292 28.4076 5.18421 20.2105 5.18421C12.0134 5.18421 5.36841 11.8292 5.36841 20.0263C5.36841 28.2234 12.0134 34.8684 20.2105 34.8684Z" stroke="black" stroke-width="2" stroke-linecap="round" stroke-linejoin="round"/>
<path d="M20.2105 24.9737C23.626 24.9737 26.3947 22.2049 26.3947 18.7895C26.3947 15.374 23.626 12.6053 20.2105 12.6053C16.7951 12.6053 14.0263 15.374 14.0263 18.7895C14.0263 22.2049 16.7951 24.9737 20.2105 24.9737Z" stroke="black" stroke-width="2" stroke-linecap="round" stroke-linejoin="round"/>
<path d="M10.2849 31.0651C11.2155 29.2322 12.6354 27.6927 14.3874 26.6173C16.1394 25.542 18.1549 24.9727 20.2105 24.9727C22.2662 24.9727 24.2817 25.542 26.0337 26.6173C27.7856 27.6927 29.2056 29.2322 30.1362 31.0651" stroke="black" stroke-width="2" stroke-linecap="round" stroke-linejoin="round"/>
</svg>
